<?xml version="1.0" encoding="UTF-8"?>
<!DOCTYPE svg PUBLIC "-//W3C//DTD SVG 1.1//EN" "http://www.w3.org/Graphics/SVG/1.1/DTD/svg11.dtd">
<!-- Creator: CorelDRAW (Evaluation Version) -->
<svg xmlns="http://www.w3.org/2000/svg" xml:space="preserve" width="1.71231in" height="2.22754in" version="1.1" style="shape-rendering:geometricPrecision; text-rendering:geometricPrecision; image-rendering:optimizeQuality; fill-rule:evenodd; clip-rule:evenodd"
viewBox="0 0 1091.38 1419.78"
 xmlns:xlink="http://www.w3.org/1999/xlink"
 xmlns:xodm="http://www.corel.com/coreldraw/odm/2003">
 <defs>
  <style type="text/css">
   <![CDATA[
    .fil1 {fill:#ED282E}
    .fil0 {fill:#007FC4}
   ]]>
  </style>
 </defs>
 <g id="Layer_x0020_1">
  <metadata id="CorelCorpID_0Corel-Layer"/>
  <rect class="fil0" transform="matrix(0.180373 -1.16784E-001 0.180373 0.116784 1.22455 229.496)" width="1965.12" height="1965.12"/>
  <rect class="fil0" transform="matrix(0.180373 -1.16784E-001 0.180373 0.116784 376.159 473.872)" width="1965.12" height="1965.12"/>
  <rect class="fil0" transform="matrix(0.180373 -1.16784E-001 0.180373 0.116784 0.58299 711.541)" width="1965.12" height="1965.12"/>
  <polygon class="fil0" points="344.03,960.31 -0,737.08 -0,1196.07 344.03,1419.31 "/>
  <polygon class="fil0" points="365.31,960.79 713.03,737.08 713.03,1196.07 365.31,1419.78 "/>
  <rect class="fil0" transform="matrix(0.260455 -1.69319E-001 -6.8979E-017 0.370528 733.548 724.627)" width="1373.89" height="1238.75"/>
  <polygon class="fil1" points="-0,253.79 335.38,470.94 -0,688.09 "/>
 </g>
</svg>
